<svg xmlns="http://www.w3.org/2000/svg" xml:space="preserve" width="1.70666in" height="1.70666in" version="1.1" style="shape-rendering:geometricPrecision; text-rendering:geometricPrecision; image-rendering:optimizeQuality; fill-rule:evenodd; clip-rule:evenodd" viewBox="0 0 1706.66 1706.66" xmlns:xlink="http://www.w3.org/1999/xlink" xmlns:xodm="http://www.corel.com/coreldraw/odm/2003">
 <defs>
  <style type="text/css">
   
    .fil0 {fill:black}
   
  </style>
 </defs>
 <g id="Layer_x0020_1">
  <metadata id="CorelCorpID_0Corel-Layer"></metadata>
  <path class="fil0" d="M1013.65 759.99c-29.9,0 -260.89,2.13 -269.86,-1.42l-107.8 -42.91c-24.44,-9.73 -9.69,-46.89 14.8,-37.16l104.22 41.5 258.63 0c33.59,0 33.59,-51.05 0,-51.05l-95.6 0c-26.33,0 -26.31,-40 0,-40l155.86 0c33.6,0 33.59,-51.07 0,-51.07l-119.85 0.01c-26.35,0 -26.34,-40 0,-40l142.63 0c33.6,0 33.59,-51.07 0,-51.07l-95.09 0c-26.33,0 -26.31,-40 0,-40l99.72 0c33.6,0 33.59,-51.07 0,-51.07l-224.89 0c-26.33,0 -26.33,-40 0,-40l224.88 0c59.33,0 87.99,73.06 44.65,113.45 27.17,31.02 19.25,78.96 -16.33,99.76 26.79,43.21 -4.22,99.91 -55.63,99.96 18.17,42.99 -13.39,91.06 -60.35,91.06z" id="id_101" style="fill: rgb(23, 91, 105);"></path>
  <path class="fil0" d="M642.76 717.07l-133.92 0c-11.04,0 -20,-8.96 -20,-20l0 -319.34c0,-11.04 8.96,-20 20,-20l133.92 0c11.04,0 20,8.96 20,20l0 319.34c0,11.06 -8.96,20 -20,20zm-113.92 -39.98l93.92 0 0 -279.37 -93.92 0 0 279.37z" id="id_102" style="fill: rgb(21, 72, 82);"></path>
  <path class="fil0" d="M642.73 397.74c-24.44,0 -27.23,-36.14 -2.94,-39.78 195.85,-29.39 92.5,-223.06 191.78,-225.56 53.4,-1.48 85.77,30.17 87.13,83.96 0.24,1.87 7.07,78.87 -23.39,166 -8.69,24.86 -46.43,11.65 -37.76,-13.19 27.58,-78.96 21.3,-149.71 21.23,-150.42 -0.58,-21.14 -6.01,-47.26 -46.31,-46.37 -32.52,0.73 15.58,196.11 -186.75,225.13 -1,0.14 -2,0.22 -2.98,0.22z" id="id_103" style="fill: rgb(14, 77, 89);"></path>
  <path class="fil0" d="M1232.45 1115.64c-7.57,0 -14.57,-4.3 -17.94,-11.19l-104.24 -212.18 -799.66 0c-61.29,0 -111.15,-49.86 -111.15,-111.14l0.01 -669.91c0,-61.28 49.86,-111.15 111.14,-111.15l1034.47 0c61.27,0 111.15,49.86 111.15,111.15l0 669.89c0,61.29 -49.87,111.15 -111.15,111.15l-37.44 -0.01 -55.87 208.55c-2.33,8.7 -10.28,14.84 -19.32,14.84zm-921.84 -1075.56c-39.23,0 -71.15,31.91 -71.15,71.15l0.01 669.89c0,39.23 31.91,71.15 71.15,71.15l812.12 -0.01c7.63,0 14.59,4.34 17.94,11.18l86.25 175.57 46.06 -171.93c5.71,-21.32 37.67,-14.82 72.11,-14.82 39.22,0 71.13,-31.91 71.13,-71.15l0 -669.89c0,-39.23 -31.91,-71.15 -71.13,-71.15l-1034.49 0z" id="id_104" style="fill: rgb(19, 76, 87);"></path>
  <path class="fil0" d="M350.83 1706.58c-11.89,0 -21.33,-10.5 -19.85,-22.47l15.07 -121.34 -83.5 -89.32c-10.72,-11.46 -4.6,-30.32 10.82,-33.31l120.06 -23.16c87.27,-157.94 66,-157.94 153.27,0 177.19,34.19 170.6,13.98 47.35,145.79 22.23,179.01 39.38,166.57 -124,90.1 -16.29,7.62 -109.44,53.7 -119.21,53.7zm-34.36 -234l65.19 69.73c4.06,4.33 5.97,10.24 5.23,16.12l-11.76 94.7 86.45 -40.45c5.37,-2.5 11.58,-2.5 16.96,0l86.44 40.45 -11.76 -94.7c-0.72,-5.89 1.2,-11.8 5.23,-16.12l65.19 -69.73 -93.71 -18.08c-5.82,-1.12 -10.85,-4.78 -13.7,-9.97l-46.17 -83.54 -46.17 83.54c-2.87,5.2 -7.89,8.85 -13.7,9.97l-93.72 18.08z" id="id_105" style="fill: rgb(20, 76, 87);"></path>
  <path class="fil0" d="M1413.5 1706.58c-9.75,0 -102.95,-46.1 -119.23,-53.72 -163.39,76.46 -146.24,88.94 -124,-90.1 -123.24,-131.8 -129.83,-111.61 47.37,-145.79 87.27,-157.94 66.01,-157.94 153.29,0 177.19,34.19 170.6,13.99 47.37,145.79l15.07 121.34c1.48,12 -7.96,22.48 -19.85,22.48zm-119.23 -95.8c9.28,0 81.06,35.86 94.92,42.34l-11.76 -94.7c-0.74,-5.89 1.18,-11.8 5.23,-16.12l65.17 -69.73 -93.7 -18.08c-5.83,-1.12 -10.84,-4.78 -13.72,-9.97l-46.15 -83.54 -46.15 83.54c-2.87,5.2 -7.89,8.84 -13.72,9.97l-93.7 18.08 65.18 69.73c4.06,4.33 5.97,10.23 5.23,16.12l-11.76 94.7c13.86,-6.48 85.65,-42.34 94.92,-42.34z" id="id_106" style="fill: rgb(21, 78, 89);"></path>
  <path class="fil0" d="M1001.37 1398.71c-9.75,0 -102.95,-46.1 -119.23,-53.72l-110.74 51.83c-14.17,6.61 -30.24,-5.09 -28.33,-20.59l15.07 -121.34c-123.25,-131.79 -129.83,-111.59 47.35,-145.78 87.25,-157.97 66,-157.95 153.29,0l120.06 23.17c15.42,2.98 21.54,21.84 10.83,33.3l-83.52 89.31 15.06 121.34c1.48,11.98 -7.93,22.48 -19.83,22.48zm-119.22 -95.81c9.27,0 81.06,35.86 94.92,42.34l-11.74 -94.7c-0.74,-5.89 1.18,-11.8 5.23,-16.13l65.17 -69.71 -93.7 -18.08c-5.83,-1.12 -10.84,-4.78 -13.72,-9.97l-46.16 -83.55 -46.15 83.55c-2.88,5.2 -7.89,8.84 -13.7,9.97l-93.71 18.08 65.19 69.71c4.06,4.34 5.98,10.24 5.24,16.13l-11.76 94.7c13.85,-6.48 85.63,-42.34 94.91,-42.34z" id="id_107" style="fill: rgb(21, 84, 97);"></path>
 </g>
</svg>