<svg width="512" height="512" viewBox="0 0 512 512" fill="none" xmlns="http://www.w3.org/2000/svg">
<path d="M244.8 135.3C248.8 137.1 253.6 135.3 255.4 131.2L264 111.9H264.1H296.1H296.2L304.8 131.2C306.1 134.2 309 136 312.1 136C313.2 136 314.3 135.8 315.3 135.3C319.3 133.5 321.2 128.8 319.4 124.7L287.4 52.7004C286.1 49.8004 283.3 47.9004 280.1 47.9004C276.9 47.9004 274.1 49.8004 272.8 52.7004L240.8 124.7C238.9 128.8 240.7 133.5 244.8 135.3ZM280 75.7004L289 96.0004H271L280 75.7004Z" fill="#145866" id="id_101"></path>
<path d="M312 80H320V88C320 92.4 323.6 96 328 96C332.4 96 336 92.4 336 88V80H344C348.4 80 352 76.4 352 72C352 67.6 348.4 64 344 64H336V56C336 51.6 332.4 48 328 48C323.6 48 320 51.6 320 56V64H312C307.6 64 304 67.6 304 72C304 76.4 307.6 80 312 80Z" fill="#135461" id="id_102"></path>
<path d="M136 176H240C244.4 176 248 172.4 248 168C248 163.6 244.4 160 240 160H136C131.6 160 128 163.6 128 168C128 172.4 131.6 176 136 176Z" fill="#114f5c" id="id_103"></path>
<path d="M136 208H344C348.4 208 352 204.4 352 200C352 195.6 348.4 192 344 192H136C131.6 192 128 195.6 128 200C128 204.4 131.6 208 136 208Z" fill="#155663" id="id_104"></path>
<path d="M72 208H104C108.4 208 112 204.4 112 200V168C112 163.6 108.4 160 104 160H72C67.6 160 64 163.6 64 168V200C64 204.4 67.6 208 72 208ZM96 192H80V176H96V192Z" fill="#145663" id="id_105"></path>
<path d="M136 240H240C244.4 240 248 236.4 248 232C248 227.6 244.4 224 240 224H136C131.6 224 128 227.6 128 232C128 236.4 131.6 240 136 240Z" fill="#10434d" id="id_106"></path>
<path d="M136 272H344C348.4 272 352 268.4 352 264C352 259.6 348.4 256 344 256H136C131.6 256 128 259.6 128 264C128 268.4 131.6 272 136 272Z" fill="#104b57" id="id_107"></path>
<path d="M72 272H104C108.4 272 112 268.4 112 264V232C112 227.6 108.4 224 104 224H72C67.6 224 64 227.6 64 232V264C64 268.4 67.6 272 72 272ZM96 256H80V240H96V256Z" fill="#0f4f5c" id="id_108"></path>
<path d="M136 304H240C244.4 304 248 300.4 248 296C248 291.6 244.4 288 240 288H136C131.6 288 128 291.6 128 296C128 300.4 131.6 304 136 304Z" fill="#15505c" id="id_109"></path>
<path d="M72 336H104C108.4 336 112 332.4 112 328V296C112 291.6 108.4 288 104 288H72C67.6 288 64 291.6 64 296V328C64 332.4 67.6 336 72 336ZM96 320H80V304H96V320Z" fill="#124752" id="id_110"></path>
<path d="M136 368H240C244.4 368 248 364.4 248 360C248 355.6 244.4 352 240 352H136C131.6 352 128 355.6 128 360C128 364.4 131.6 368 136 368Z" fill="#13505c" id="id_111"></path>
<path d="M104 400C108.4 400 112 396.4 112 392V360C112 355.6 108.4 352 104 352H72C67.6 352 64 355.6 64 360V392C64 396.4 67.6 400 72 400H104ZM96 384H80V368H96V384Z" fill="#18525e" id="id_112"></path>
<path d="M152 72H232C236.4 72 240 68.4 240 64C240 59.6 236.4 56 232 56H152C147.6 56 144 59.6 144 64C144 68.4 147.6 72 152 72Z" fill="#185966" id="id_113"></path>
<path d="M152 104H216C220.4 104 224 100.4 224 96C224 91.6 220.4 88 216 88H152C147.6 88 144 91.6 144 96C144 100.4 147.6 104 152 104Z" fill="#1c535e" id="id_114"></path>
<path d="M493.7 234.3L461.7 202.3C458.6 199.2 453.5 199.2 450.4 202.3L418.4 234.3L416.1 236.6V56C416.1 51.6 412.5 48 408.1 48H384.1V24C384.1 19.6 380.5 16 376.1 16H120C119.9 16 119.8 16 119.7 16C119.6 16 119.5 16 119.4 16C119.1 16 118.7 16.1 118.4 16.1C118.1 16.2 117.7 16.3 117.4 16.4C117.3 16.4 117.2 16.5 117.1 16.5C116.8 16.6 116.5 16.7 116.2 16.9C115.9 17.1 115.6 17.3 115.3 17.5C115.2 17.6 115.2 17.6 115.1 17.7C114.8 17.9 114.5 18.1 114.3 18.4L34.3004 98.4C34.0004 98.7 33.8004 98.9 33.6004 99.2C33.5004 99.3 33.5004 99.3 33.4004 99.4C33.2004 99.7 33.0004 100 32.8004 100.3C32.6004 100.6 32.5004 100.9 32.4004 101.2C32.4004 101.3 32.3004 101.4 32.3004 101.4C32.2004 101.7 32.1004 102.1 32.0004 102.4C31.9004 102.7 31.9004 103.1 31.9004 103.4C31.9004 103.5 31.9004 103.6 31.9004 103.7C31.9004 103.8 31.9004 103.9 31.9004 104V456C31.9004 460.4 35.5004 464 39.9004 464H63.9004V488C63.9004 492.4 67.5004 496 71.9004 496H407.9C412.3 496 415.9 492.4 415.9 488V323.3L461.6 277.6L493.6 245.6C496.8 242.5 496.8 237.5 493.7 234.3ZM400 64V252.7L384 268.7V64H400ZM112 43.3V96H59.3004L112 43.3ZM48.0004 112H120C124.4 112 128 108.4 128 104V32H368V284.7L332.7 320H136C131.6 320 128 323.6 128 328C128 332.4 131.6 336 136 336H316.7L274.4 378.3C274.3 378.4 274.3 378.4 274.2 378.5C274.1 378.7 273.9 378.8 273.8 379C273.7 379.1 273.7 379.2 273.6 379.2C273.5 379.4 273.4 379.6 273.2 379.7C273.2 379.8 273.1 379.8 273.1 379.9C273 380.1 272.9 380.3 272.8 380.6C272.8 380.6 272.8 380.7 272.7 380.7L272.6 380.8L271.3 383.8H136C131.6 383.8 128 387.4 128 391.8C128 396.2 131.6 399.8 136 399.8H264.4L248.6 436.6C247.3 439.6 248 443.1 250.3 445.4C251.8 446.9 253.9 447.7 256 447.7C257.1 447.7 258.1 447.5 259.1 447.1L315 423.2L315.1 423.1C315.1 423.1 315.2 423.1 315.2 423C315.4 422.9 315.6 422.8 315.9 422.7C316 422.7 316.1 422.6 316.1 422.6C316.3 422.5 316.5 422.4 316.6 422.2C316.7 422.1 316.8 422.1 316.8 422C317 421.9 317.1 421.7 317.3 421.6C317.4 421.5 317.4 421.5 317.5 421.4L339.2 399.7H343.9C348.3 399.7 351.9 396.1 351.9 391.7C351.9 390.3 351.6 389.1 351 387.9L367.9 371V448H48.0004V112ZM282.7 398L298 413.3L271.2 424.8L282.7 398ZM400 480H80.0004V464H376C380.4 464 384 460.4 384 456V355.3L400 339.3V480ZM312 404.7L291.3 384L424 251.3L444.7 272L312 404.7ZM456 260.7L435.3 240L456 219.3L476.7 240L456 260.7Z" fill="#113e47" id="id_115"></path>
</svg>