<svg xmlns="http://www.w3.org/2000/svg" xml:space="preserve" width="7.11111in" height="7.11111in" version="1.1" style="shape-rendering:geometricPrecision; text-rendering:geometricPrecision; image-rendering:optimizeQuality; fill-rule:evenodd; clip-rule:evenodd" viewBox="0 0 7111 7111" xmlns:xlink="http://www.w3.org/1999/xlink">
 <defs>
  <style type="text/css">
   
    .fil0 {fill:black}
   
  </style>
 </defs>
 <g id="Layer_x0020_1">
  <metadata id="CorelCorpID_0Corel-Layer"></metadata>
  <g id="_412136648">
   <g>
    <g>
     <path class="fil0" d="M3937 4755l-369 0c-276,0 -500,-85 -665,-253 -197,-201 -297,-513 -289,-901 2,-54 45,-95 99,-94 54,1 96,46 94,99 -5,233 32,553 233,760 127,129 303,195 527,195l369 0c222,0 400,-66 526,-195 203,-207 239,-527 235,-760 -2,-55 41,-99 96,-99 0,0 1,0 1,0 53,0 96,42 97,96 8,388 -93,699 -290,901 -164,166 -387,251 -664,251z" id="id_135" style="fill: rgb(12, 70, 82);"></path>
    </g>
    <g>
     <path class="fil0" d="M4795 3700c-16,0 -32,-4 -47,-13 -30,-16 -50,-50 -50,-84 0,-152 -28,-385 -89,-497 -173,47 -326,65 -459,65 -363,0 -590,-136 -732,-222 -33,-20 -75,-45 -90,-49 -236,2 -400,160 -401,163 -82,82 -118,365 -118,540 0,36 -20,68 -50,84 -31,17 -70,16 -99,-2 -253,-161 -397,-429 -408,-754 -14,-436 218,-885 605,-1169 285,-210 610,-315 940,-306 329,10 647,134 919,357 356,293 563,732 539,1147 -18,311 -163,568 -406,723 -18,11 -36,17 -54,17zm98 -97l0 0 0 0zm-1138 -1954c-269,0 -540,91 -784,270 -337,247 -539,633 -526,1006 5,190 69,354 180,479 17,-159 60,-373 164,-479 10,-9 225,-218 542,-218 58,0 112,32 187,77 187,112 501,300 1101,118 35,-11 71,-2 97,23 106,106 149,318 165,478 106,-120 168,-275 178,-454 21,-354 -158,-732 -468,-986 0,0 0,0 0,0 -254,-208 -544,-314 -836,-314z" id="id_136" style="fill: rgb(14, 72, 84);"></path>
    </g>
    <g>
     <path class="fil0" d="M2691 2853c-24,0 -49,-8 -67,-26 -39,-38 -40,-99 -3,-138 172,-180 443,-297 690,-297 54,0 97,43 97,97 0,54 -43,97 -97,97 -194,0 -415,96 -550,237 -19,19 -44,30 -70,30z" id="id_137" style="fill: rgb(15, 71, 82);"></path>
    </g>
    <g>
     <path class="fil0" d="M4825 2788c-44,0 -84,-29 -95,-74 -51,-198 -168,-384 -330,-523 -379,-325 -840,-339 -1235,-36 -43,33 -104,25 -136,-18 -33,-43 -25,-104 18,-136 466,-357 1032,-341 1479,43 192,165 330,386 392,622 13,51 -19,105 -70,118 -7,2 -15,4 -23,4z" id="id_138" style="fill: rgb(11, 68, 79);"></path>
    </g>
    <g>
     <path class="fil0" d="M5792 7110l-4079 0c-54,0 -97,-43 -97,-97l0 -906c0,-554 450,-1003 1002,-1003l2268 0c552,0 1002,449 1002,1003l0 906c1,54 -43,97 -96,97zm-3982 -195l3885 0 0 -808c0,-447 -362,-809 -808,-809l-2269 0c-445,0 -808,364 -808,809l0 808z" id="id_139" style="fill: rgb(12, 75, 87);"></path>
    </g>
    <g>
     <g>
      <path class="fil0" d="M4419 6063c-17,0 -33,-4 -48,-13l-667 -383c-30,-16 -48,-50 -48,-84 0,-35 18,-67 48,-85l667 -383c30,-17 66,-17 97,0 30,18 48,50 48,84l0 767c0,34 -18,66 -48,84 -16,9 -32,13 -49,13zm-472 -479l375 215 0 -430 -375 215z" id="id_140" style="fill: rgb(13, 76, 89);"></path>
     </g>
     <g>
      <path class="fil0" d="M3086 6063c-16,0 -33,-4 -48,-13 -31,-18 -49,-50 -49,-84l0 -767c0,-34 18,-66 49,-84 30,-18 66,-18 97,0l666 383c31,17 49,50 49,85 0,34 -18,66 -49,84l-666 383c-15,9 -32,13 -49,13zm97 -694l0 430 375 -215 -375 -215z" id="id_141" style="fill: rgb(18, 85, 99);"></path>
     </g>
    </g>
    <g>
     <path class="fil0" d="M3365 7110c-5,0 -9,0 -15,-2 -53,-8 -89,-58 -80,-111l208 -1326c8,-52 58,-88 111,-80 53,8 89,58 80,111l-208 1326c-8,48 -50,82 -96,82z" id="id_142" style="fill: rgb(14, 75, 87);"></path>
    </g>
    <g>
     <path class="fil0" d="M4141 7110c-47,0 -88,-35 -95,-82l-210 -1326c-8,-53 28,-103 81,-111 52,-8 102,28 111,80l209 1326c9,53 -28,103 -80,111 -6,2 -11,2 -16,2z" id="id_143" style="fill: rgb(16, 73, 84);"></path>
    </g>
    <g>
     <g>
      <path class="fil0" d="M5192 7110c-54,0 -97,-43 -97,-97l0 -738c0,-54 43,-97 97,-97 55,0 98,43 98,97l0 738c0,54 -43,97 -98,97z" id="id_144" style="fill: rgb(15, 71, 82);"></path>
     </g>
     <g>
      <path class="fil0" d="M2312 7110c-55,0 -98,-43 -98,-97l0 -738c0,-54 43,-97 98,-97 54,0 97,43 97,97l0 738c0,54 -43,97 -97,97z" id="id_145" style="fill: rgb(16, 79, 92);"></path>
     </g>
    </g>
    <g>
     <path class="fil0" d="M4419 5298l-1334 0c-31,0 -60,-14 -78,-39 -18,-25 -23,-57 -15,-86l173 -589c16,-51 70,-80 121,-65 52,15 81,69 65,121l-136 464 1074 0 -136 -466c-16,-51 13,-105 65,-120 51,-16 105,14 121,65l173 589c8,29 3,61 -15,86 -18,25 -47,40 -78,40z" id="id_146" style="fill: rgb(16, 90, 105);"></path>
    </g>
    <g>
     <g>
      <path class="fil0" d="M4090 1236c-17,0 -32,-5 -47,-13l-292 -160 -291 160c-34,18 -74,15 -104,-7 -31,-22 -46,-60 -39,-97l62 -326 -240 -227c-28,-26 -37,-65 -26,-101 11,-36 43,-61 80,-67l331 -41 140 -300c17,-35 50,-56 87,-56 38,0 73,23 88,56l141 300 331 41c37,5 68,31 80,67 11,36 2,75 -26,101l-242 227 63 326c7,37 -8,75 -39,97 -17,13 -36,20 -57,20zm-337 -381c16,0 32,4 47,13l157 86 -34 -175c-6,-33 5,-67 30,-89l130 -122 -178 -22c-33,-5 -61,-25 -76,-56l-76 -161 -77 161c-14,31 -43,51 -76,56l-178 22 131 122c25,22 34,57 29,89l-33 175 156 -86c16,-9 31,-13 48,-13z" id="id_147" style="fill: rgb(22, 95, 110);"></path>
     </g>
     <g>
      <g>
       <path class="fil0" d="M1444 1942c-21,0 -40,-7 -57,-18 -31,-22 -46,-59 -39,-97l63 -326 -242 -228c-28,-26 -37,-65 -26,-101 11,-36 43,-61 80,-67l329 -42 142 -298c16,-35 50,-56 87,-56 38,0 72,23 88,56l141 300 331 42c37,4 68,30 80,66 11,36 2,75 -26,102l-243 226 62 326c7,38 -8,75 -38,97 -31,22 -71,25 -105,7l-291 -159 -292 159c-12,9 -29,11 -44,11zm337 -380c17,0 32,4 47,12l157 86 -33 -176c-6,-33 4,-67 29,-89l131 -122 -178 -22c-33,-4 -61,-25 -76,-56l-77 -161 -76 161c-14,31 -43,52 -76,56l-177 22 131 122c23,23 34,57 29,89l-33 175 156 -86c14,-7 30,-11 46,-11z" id="id_148" style="fill: rgb(21, 82, 94);"></path>
      </g>
      <g>
       <path class="fil0" d="M5385 1942c-20,0 -40,-7 -57,-18 -30,-22 -45,-59 -38,-97l62 -326 -241 -226c-28,-27 -38,-66 -27,-102 11,-36 43,-61 81,-66l330 -42 140 -300c17,-35 50,-56 88,-56 37,0 72,23 87,56l142 300 330 42c38,4 68,30 81,66 11,36 1,75 -27,102l-241 226 62 326c7,38 -8,75 -39,97 -30,22 -70,25 -104,7l-291 -159 -292 159c-12,9 -29,11 -46,11zm339 -380c17,0 32,4 47,12l157 86 -33 -174c-7,-34 4,-67 29,-89l131 -122 -178 -23c-33,-4 -61,-25 -76,-55l-77 -161 -76 161c-14,30 -43,51 -77,55l-177 23 130 122c25,22 35,57 29,89l-33 174 157 -86c14,-8 30,-12 47,-12z" id="id_149" style="fill: rgb(16, 79, 92);"></path>
      </g>
     </g>
    </g>
    <g>
     <path class="fil0" d="M1222 4071c-321,0 -582,-261 -582,-581 0,-320 261,-581 582,-581 320,0 580,261 580,581 1,321 -260,581 -580,581zm0 -968c-214,0 -388,173 -388,387 0,214 174,386 388,386 214,0 386,-173 386,-386 1,-214 -172,-387 -386,-387z" id="id_150" style="fill: rgb(15, 85, 99);"></path>
    </g>
    <g>
     <path class="fil0" d="M6030 5067c-243,0 -442,-197 -442,-440 0,-243 199,-441 442,-441 243,0 441,198 441,441 0,243 -198,440 -441,440zm0 -685c-136,0 -248,111 -248,247 0,136 112,245 248,245 136,0 247,-111 247,-247 0,-136 -111,-245 -247,-245z" id="id_151" style="fill: rgb(13, 61, 71);"></path>
    </g>
   </g>
  </g>
 </g>
</svg>