<svg xmlns="http://www.w3.org/2000/svg" xml:space="preserve" width="1.70666in" height="1.70666in" version="1.1" style="shape-rendering:geometricPrecision; text-rendering:geometricPrecision; image-rendering:optimizeQuality; fill-rule:evenodd; clip-rule:evenodd" viewBox="0 0 1707 1707" xmlns:xlink="http://www.w3.org/1999/xlink">
 <defs>
  <style type="text/css">
   
    .fil0 {fill:black}
   
  </style>
 </defs>
 <g id="Layer_x0020_1">
  <metadata id="CorelCorpID_0Corel-Layer"></metadata>
  <path class="fil0" d="M1407 1706l-1107 0c-13,0 -23,-10 -23,-23l0 -132c0,-13 10,-23 23,-23l91 0 0 -354c0,-137 85,-254 205,-302 -120,-47 -205,-165 -205,-301l0 -392 -91 0c-13,0 -23,-10 -23,-23l0 -133c0,-12 10,-22 23,-22l1107 0c12,0 22,10 22,22l0 133c0,13 -10,23 -22,23l-91 0 0 392c0,136 -85,254 -205,301 120,48 205,165 205,302l0 354 91 0c12,0 22,10 22,23l0 132c0,13 -10,23 -22,23zm-971 -178l834 0 0 -354c0,-154 -125,-279 -278,-279 -30,0 -30,-46 0,-46 153,0 278,-125 278,-278l0 -392 -834 0 0 392c0,153 125,278 279,278 30,0 30,46 0,46 -154,0 -279,125 -279,279l0 354zm857 45l-970 0 0 87 1061 0 0 -87 -91 0zm-121 -129l-637 0c-64,0 2,-182 293,-325l0 -305c-54,-20 -227,-95 -335,-278 -10,-17 4,-37 23,-34 96,14 356,-18 667,-198 15,-8 34,2 34,20 0,3 2,320 -344,488l0 306c297,143 363,326 299,326zm-607 -46l577 0c-47,-117 -245,-218 -291,-240 -45,22 -240,123 -286,240zm-10 -849c105,150 258,211 294,224 255,-121 309,-323 320,-408 -294,161 -506,185 -614,184zm-232 -416l1061 0 0 -87 -1061 0 0 87z" id="id_101" style="fill: rgb(13, 76, 89);"></path>
 </g>
</svg>